<svg xmlns="http://www.w3.org/2000/svg" width="422.008" height="422.004" viewBox="0 0 422.008 422.004"><g transform="translate(-29.437 -29.746)"><path d="M374.84,82.008a207.822,207.822,0,0,0-267.98-.68,200.652,200.652,0,0,0-17.039,15.98A207.18,207.18,0,0,0,32.438,240.747a203.542,203.542,0,0,0,1.32,23.281,206.354,206.354,0,0,0,20.895,70.293l14.562,24.52A208.346,208.346,0,0,0,293.18,442.008q9.926-2.613,19.438-6.121a208.061,208.061,0,0,0,135.8-192.48v-.02c.02-.879.02-1.758.02-2.641a207.5,207.5,0,0,0-73.6-158.738Zm0,0" fill="#8ac6dd"/><path d="M376.777,79.719a210.832,210.832,0,0,0-271.84-.7A204.867,204.867,0,0,0,87.648,95.238,209.942,209.942,0,0,0,29.437,240.746a206.35,206.35,0,0,0,1.34,23.609,208.788,208.788,0,0,0,21.2,71.316,3,3,0,0,0,5.355-2.7A205.066,205.066,0,0,1,92,99.375a198.052,198.052,0,0,1,16.793-15.75A204.993,204.993,0,0,1,445.437,240.746c0,.855,0,1.715-.02,2.625-1.047,84.227-54.836,160.465-133.836,189.7-6.223,2.3-12.672,4.328-19.16,6.031A204.93,204.93,0,0,1,71.687,357.141a3,3,0,0,0-4.934,3.41A211.324,211.324,0,0,0,293.945,444.91c6.68-1.754,13.316-3.84,19.719-6.207A211.062,211.062,0,0,0,451.422,243.461c.023-.906.023-1.809.023-2.711A210.716,210.716,0,0,0,376.777,79.719Zm0,0" fill="#3a312a"/><path d="M195.359,325.926c-1.7-.719-3.539-1.039-5.18-1.859a18.845,18.845,0,0,1-5-4.258l-11.762-12.641A27.171,27.171,0,0,0,161,299.7c-2.371-.687-4.918-.629-7.246-1.273-2.02-.559-2.469-1.453-3.82-3.125a8.832,8.832,0,0,0-5.781-2.914c-7.531-.977-16.355,1.387-22.961,4.879-3.754,1.988-5.332-3.383-9.59-3.684-14.063-.992-21.781-13.945-35.57-16.891-2.156-.461-4.457-.812-6.145-2.23-3.242-2.73-2.605-7.988-.6-11.723,1.313-2.434,3.426-4.82,6.188-4.949,3.418-.164,5.895,3.059,7.883,5.848a103.271,103.271,0,0,0,9.371,11.344c1.973,2.07,4.691,4.23,7.4,3.309,3.352-1.145,3.574-5.848,2.523-9.227-1.656-5.324-17.4-18.7-15-22.535C93.3,237.5,103.3,233.789,103.508,221.6a14.417,14.417,0,0,1,.473-4.961c.266-.7,14.488-12.66,13.637-12.816q5.115.926,10.223,1.848c2.559.465,5.879.566,7-1.777,1.016-2.129-.773-4.617-2.852-5.738s-4.531-1.547-6.387-3-2.672-4.691-.738-6.043c1.418-.992,3.355-.375,4.961.273,3.656,1.473,24.984,11.949,25.891,3.746.719-6.5-10.98-6.961-13.16-13.121-1.562-4.355,2.477-10.008-2.551-13.082-2.34-1.434-5.414-1.109-7.824-2.422-6.285-3.418-3.707-12.3-7.766-17.176-2.187-2.629-6.8-3.5-8.906-.809s-.727,6.313-.836,9.367c-.07,2.043-1.105,4.344-3.105,4.762-3.113.648-4.895-3.3-7.254-5.43-2.555-2.3-6.363-2.547-9.777-2.109-7.184.926-17.352,2.293-16.863-8.867,5.813-.555,11.551-.773,17.117-2.844,1.637-.613,12.891-8.355,12.969-8.324-3.781-1.441-15.844-.137-16.34-4.711s7.172-5.074,10.086-4.234a6.114,6.114,0,0,0,6.77-2.031c2.043-2.863.051-5.273-1.762-7.187q-7.594-8.01-15.18-16.043c-.48-.5-.98-1.02-1.52-1.559A207.189,207.189,0,0,0,32.429,240.746a203.47,203.47,0,0,0,1.32,23.277c8.516.109,19.66-1.18,19.711,10.16.059,11.879,13.738,15.211,22.984,18.418a164.166,164.166,0,0,1,31.3,14.785c-2.781,7.52,4.66,14.617,11.242,19.2s14.059,11.559,11.418,19.121c-1.32,3.84-5.2,6.918-4.9,10.977a10.985,10.985,0,0,0,2.219,5.141,157.542,157.542,0,0,0,15.02,19.32c1.922,2.121-6.059,18.3-14.34,34.9a207.905,207.905,0,0,0,30.6,16.16c9.617-9.66,22.719-22.82,28.418-28.461,5.223-5.16,14.742-3.539,15.66-10.82.82-6.539-2.277-12.9-2.84-19.48-.758-8.559,8.961-22.2,10.18-30.7s-7.152-13.5-15.07-16.82Zm0,0" fill="#d7e057"/><path d="M196.527,323.164a27,27,0,0,0-2.586-.9,16.425,16.425,0,0,1-2.4-.867,16.6,16.6,0,0,1-4.168-3.633l-11.758-12.641a30.21,30.21,0,0,0-13.785-8.3,26.174,26.174,0,0,0-4.187-.754,22.839,22.839,0,0,1-3.094-.523c-.785-.219-.859-.312-1.738-1.434l-.555-.7a11.744,11.744,0,0,0-7.723-4c-7.5-.977-16.746.973-24.746,5.207-.121.063-.191.082-.191.09a7.5,7.5,0,0,1-1.574-1.129,10.75,10.75,0,0,0-6.211-2.988c-6.7-.473-11.961-4.117-17.527-7.973-5.227-3.621-10.629-7.367-17.629-8.859l-.691-.145a9.85,9.85,0,0,1-4.145-1.449c-1.871-1.578-1.34-5.3.113-8,1.105-2.055,2.484-3.316,3.688-3.371,1.824-.1,3.68,2.324,5.3,4.59a107.087,107.087,0,0,0,9.641,11.672c3.66,3.844,7.2,5.215,10.543,4.078,5.012-1.711,6.016-7.812,4.414-12.957-.879-2.828-4.047-6.473-7.719-10.7-2.578-2.965-6.8-7.836-7.344-9.758a46.859,46.859,0,0,1,6.168-7.109c4.785-4.8,9.734-9.777,9.895-18.961,0-.344,0-.7,0-1.043a12.207,12.207,0,0,1,.141-2.453c.852-.824,3.02-2.746,4.809-4.332,3.719-3.3,6.016-5.336,7.391-6.727l8.457,1.531c6.535,1.18,9.172-1.219,10.234-3.441,1.773-3.7-.707-7.82-4.129-9.668a23.774,23.774,0,0,0-2.973-1.289,11.733,11.733,0,0,1-2.984-1.434,2.189,2.189,0,0,1-.691-1.207,7.051,7.051,0,0,1,1.937.574c.387.156.984.422,1.742.754,10.121,4.461,20.18,8.18,25.242,5.262a6.042,6.042,0,0,0,3.008-4.719c.609-5.523-4.254-8.148-7.809-10.07-2.4-1.3-4.887-2.641-5.512-4.395a9.728,9.728,0,0,1,0-3.992c.371-3.078.938-7.734-3.809-10.637a14.551,14.551,0,0,0-5.035-1.672,10.54,10.54,0,0,1-2.922-.824c-2.227-1.211-2.77-3.594-3.473-7.375-.555-3-1.184-6.4-3.422-9.086a9.957,9.957,0,0,0-7.7-3.523,7.417,7.417,0,0,0-5.875,2.785c-2.238,2.848-1.9,6.094-1.629,8.7a19.125,19.125,0,0,1,.152,2.414,2.606,2.606,0,0,1-.719,1.93c-.469.113-1.707-1.441-2.387-2.262A22.758,22.758,0,0,0,106.328,153q-4.266-3.855-12.281-2.844c-4.105.531-9.723,1.25-12.016-.855a4.2,4.2,0,0,1-1.187-2.32c4.914-.43,9.988-.9,15-2.766,1.125-.418,3.84-2.129,11.164-7.039,1.074-.719,1.891-1.27,2.191-1.457a3,3,0,0,0-.363-5.441l-.016,0a1.083,1.083,0,0,1-.1-.039c-.051-.016-.1-.035-.141-.051a28.718,28.718,0,0,0-6.4-.941c-2.187-.176-6.645-.535-7.766-1.375.422-.8,4.2-1.449,6.266-.855a9.024,9.024,0,0,0,10.043-3.168c3.605-5.051-.488-9.367-2.027-11L93.5,96.8c-.492-.516-1.008-1.047-1.566-1.605a2.992,2.992,0,0,0-2.117-.875h-.039a2.983,2.983,0,0,0-2.133.93A209.956,209.956,0,0,0,29.441,240.754a207.724,207.724,0,0,0,1.336,23.625,3.007,3.007,0,0,0,2.945,2.66c.855.008,1.742,0,2.641,0,9.719,0,14.078.629,14.109,7.168.059,12.914,12.93,17.2,22.324,20.336.922.3,1.82.605,2.672.9A161.06,161.06,0,0,1,104.3,308.824c-.785,5.086,1.371,12.156,12.98,20.234,5.789,4.031,12.277,10.02,10.3,15.684a17.494,17.494,0,0,1-1.973,3.563c-1.566,2.4-3.34,5.117-3.086,8.586a13.643,13.643,0,0,0,2.715,6.6,160.617,160.617,0,0,0,14.8,19.129c-.414,4.258-9.059,21.594-14.3,32.1a3,3,0,0,0,1.063,3.863,210.963,210.963,0,0,0,31.043,16.395,2.949,2.949,0,0,0,1.176.242,3.025,3.025,0,0,0,2.129-.883l1.285-1.293c9.656-9.7,21.676-21.77,27.117-27.152,1.652-1.633,4.043-2.449,6.57-3.3,4.09-1.391,9.176-3.121,9.957-9.273.563-4.5-.457-8.734-1.445-12.828a48.7,48.7,0,0,1-1.383-7.293c-.367-4.09,2.563-10.516,5.145-16.187,2.277-5.008,4.43-9.738,5.016-13.82,1.75-12.211-12.281-18.094-16.883-20.02Zm10.941,19.156c-.465,3.23-2.535,7.781-4.539,12.184-3.031,6.656-6.164,13.543-5.66,19.2a54.9,54.9,0,0,0,1.527,8.176c.9,3.738,1.75,7.266,1.324,10.676-.277,2.219-1.848,2.953-5.934,4.34-2.914.992-6.223,2.117-8.859,4.719-5.426,5.375-17.359,17.352-26.992,27.031a205.589,205.589,0,0,1-26.02-13.684c13.406-26.977,15.41-32.8,12.664-35.832a155.269,155.269,0,0,1-14.734-18.949,8.756,8.756,0,0,1-1.734-3.711c-.109-1.473.926-3.059,2.121-4.891a22.612,22.612,0,0,0,2.621-4.879c2.582-7.391-1.641-14.984-12.539-22.57-4.734-3.3-12.352-9.719-10.141-15.7a3,3,0,0,0-1.254-3.6A166.84,166.84,0,0,0,77.441,289.77c-.879-.3-1.8-.609-2.746-.926-10.3-3.434-18.184-6.7-18.223-14.672-.062-13.152-12.012-13.18-20.02-13.145a204.849,204.849,0,0,1,53.4-159.371l14.492,15.313c2.23,2.355,1.906,2.809,1.5,3.383a3.2,3.2,0,0,1-3.5.887c-2.828-.812-8.488-.762-11.668,1.914a6.166,6.166,0,0,0-2.227,5.531c.516,4.789,5.875,5.84,10.969,6.336-2.457,1.625-5,3.27-5.66,3.566-4.355,1.621-8.91,2.016-13.73,2.434-.875.078-1.75.152-2.629.238a3,3,0,0,0-2.715,2.855c-.184,4.2.926,7.422,3.293,9.6,4.352,4,11.57,3.066,16.953,2.375,2.348-.3,5.531-.312,7.383,1.359a18.177,18.177,0,0,1,1.641,1.828c1.691,2.051,4.258,5.152,8.234,4.316,3.617-.754,5.383-4.465,5.492-7.594a23.832,23.832,0,0,0-.18-3.246c-.223-2.141-.309-3.5.375-4.375a1.541,1.541,0,0,1,1.246-.492,4.116,4.116,0,0,1,3,1.367c1.234,1.48,1.672,3.84,2.133,6.336.738,3.973,1.652,8.914,6.508,11.555a15.538,15.538,0,0,0,4.652,1.445,9.8,9.8,0,0,1,3.039.9c1.234.758,1.383,1.477.98,4.8a14.321,14.321,0,0,0,.3,6.727c1.387,3.922,5.063,5.906,8.309,7.66,3.59,1.938,4.836,2.855,4.7,4.133-.012.105-.031.164-.027.172-.477.371-3.539,1.637-19.844-5.547-.832-.363-1.492-.656-1.918-.828-1.465-.59-4.9-1.973-7.8.055a5.606,5.606,0,0,0-2.387,4.57,7.978,7.978,0,0,0,2.992,6.285,16.47,16.47,0,0,0,4.57,2.336,18.416,18.416,0,0,1,2.242.957,2.927,2.927,0,0,1,1.57,1.8c-.051.117-.98.629-3.758.125l-10.219-1.848h0a3,3,0,0,0-3.254,1.691c-1.145,1.207-5.02,4.645-7.414,6.77-5.711,5.059-5.945,5.293-6.3,6.23a13.564,13.564,0,0,0-.668,5.066l0,.918c-.113,6.766-3.656,10.324-8.145,14.832a48.811,48.811,0,0,0-7.262,8.563c-2.574,4.113,2.164,9.566,8.16,16.469,2.68,3.086,6.016,6.922,6.52,8.551.762,2.453.461,5.121-.625,5.492-.879.309-2.437-.625-4.262-2.539A101.714,101.714,0,0,1,85.8,261.9c-1.957-2.75-5.211-7.316-10.465-7.1-3.426.164-6.512,2.477-8.687,6.523-2.555,4.754-3.234,11.613,1.309,15.438,2.09,1.762,4.59,2.277,6.793,2.734l.652.137c5.824,1.242,10.508,4.484,15.465,7.922,5.988,4.145,12.176,8.438,20.523,9.023.863.063,1.633.656,2.8,1.621,1.7,1.41,4.543,3.773,8.4,1.723,6.84-3.617,14.945-5.359,21.168-4.555a5.91,5.91,0,0,1,3.84,1.828l.492.625a8.34,8.34,0,0,0,4.859,3.5,26.361,26.361,0,0,0,3.953.7,22.422,22.422,0,0,1,3.262.566,24.264,24.264,0,0,1,11.059,6.625l11.754,12.637a16.66,16.66,0,0,0,9.2,6.152,20.634,20.634,0,0,1,2.023.7c9.793,4.105,14.012,8.438,13.266,13.625Zm0,0" fill="#3a312a"/><path d="M233.918,61.027c-9.9-7.422-19.82-17.2-30.48-25a206.988,206.988,0,0,0-96.578,45.3,23.587,23.587,0,0,0,6.52,4.66c3.359,1.617,7.219,2.457,9.918,5.039,6.543,6.238,3.441,19.621,11.523,23.66,2.34,1.16,5.078,1.16,7.5,2.1,4.559,1.758,7.2,6.4,10.859,9.637s10.379,4.48,12.719.2c1.281-2.34.559-5.3,1.32-7.863,1.539-5.1,8.141-6.66,13.4-5.8,5.262.84,10.422,3.219,15.7,2.5s10.258-6.781,7.277-11.2c8.6,3,19.883,5.262,25.383-2-3.742-3.457-7.82-8.578-5.383-13.059,1.039-1.879,3.141-3.2,3.621-5.3.6-2.66-1.582-5.02-2.941-7.4-1.34-2.359-1.1-6.422,1.621-6.66a16.432,16.432,0,0,0,17.7,5.621c.582-6.043-4.82-10.8-9.68-14.441Zm0,0" fill="#d7e057"/><path d="M235.715,58.625c-4.594-3.445-9.141-7.363-13.957-11.512-5.324-4.586-10.828-9.324-16.547-13.508a2.992,2.992,0,0,0-2.3-.531,210.479,210.479,0,0,0-97.98,45.953,3,3,0,0,0-.191,4.418,26.281,26.281,0,0,0,7.34,5.242c1.133.551,2.285,1,3.4,1.441a17.546,17.546,0,0,1,5.75,3.066c2.34,2.234,3.176,6,4.063,9.98,1.191,5.328,2.535,11.367,8.2,14.2a19.272,19.272,0,0,0,4.859,1.465,18.088,18.088,0,0,1,2.891.746c2.355.906,4.246,3.023,6.25,5.262a44.678,44.678,0,0,0,3.7,3.824,14.993,14.993,0,0,0,9.555,3.7,10.837,10.837,0,0,0,1.832-.152,8.214,8.214,0,0,0,5.953-4.148,12.638,12.638,0,0,0,1.25-5.758,12.161,12.161,0,0,1,.313-2.676c.961-3.191,5.859-4.387,10.055-3.707,1.609.258,3.234.68,4.953,1.125,3.7.957,7.516,1.949,11.625,1.387a13.19,13.19,0,0,0,9.914-7.426,9.681,9.681,0,0,0,.734-2.437c11.363,3.051,19.422,1.543,24-4.5a3,3,0,0,0-.352-4.016c-1.984-1.832-6.418-6.422-4.793-9.406a9.967,9.967,0,0,1,1.215-1.547,10.291,10.291,0,0,0,2.707-4.543c.75-3.309-.984-5.98-2.375-8.125-.289-.449-.582-.895-.836-1.34a19.618,19.618,0,0,0,17.582,3.223,3.009,3.009,0,0,0,2.07-2.57c.707-7.391-5.1-12.809-10.871-17.129ZM228.3,68.047a3.014,3.014,0,0,0-2.664-1.191,5.367,5.367,0,0,0-4.332,2.93,9.046,9.046,0,0,0,.371,8.207c.328.57.691,1.137,1.063,1.707.859,1.324,1.75,2.7,1.559,3.535a5.965,5.965,0,0,1-1.344,1.895,14.692,14.692,0,0,0-1.988,2.641c-1.66,3.051-2.2,7.938,3.766,14.477-3.937,2.75-10.7,2.484-20.141-.816a3,3,0,0,0-3.477,4.512,2.459,2.459,0,0,1,.051,2.617,7.293,7.293,0,0,1-5.25,3.93c-2.93.406-6.031-.4-9.309-1.25-1.777-.461-3.617-.937-5.5-1.238-6.8-1.109-14.75,1.246-16.762,7.91a17.094,17.094,0,0,0-.555,4.109,7.882,7.882,0,0,1-.52,3.164,2.2,2.2,0,0,1-1.723,1.117,8.556,8.556,0,0,1-6.375-2.125,39.717,39.717,0,0,1-3.207-3.328c-2.387-2.672-4.859-5.434-8.555-6.863a23.22,23.22,0,0,0-3.867-1.027,14.22,14.22,0,0,1-3.375-.957c-3.1-1.551-3.984-5.527-5.012-10.133-1-4.465-2.121-9.523-5.781-13.016-2.293-2.191-5.164-3.32-7.7-4.312-1.008-.4-2.02-.793-2.992-1.262a20.339,20.339,0,0,1-3.172-1.9A204.42,204.42,0,0,1,202.7,39.207c5.172,3.863,10.234,8.223,15.141,12.449s9.52,8.2,14.281,11.766c3.73,2.8,7.492,6.066,8.34,9.668A13.39,13.39,0,0,1,228.3,68.047Zm0,0" fill="#3a312a"/><path d="M374.84,82.008a22.431,22.431,0,0,0-3.562,2.66c-4.5,4.2-5.2,13.418-13.141,13.059s-12.754-11.648-21.215-5.207c-2.68,2.043-4.582,4.953-7.187,7.086-4.5,3.68-9.723,4.813-15.379,5.188-.816.051-14.113,1.063-14.051,1.191a28.392,28.392,0,0,1,2.57,6.473c-3.363,1.52-7.172,1.566-10.844,1.941s-7.562,1.238-10.109,3.91a9.392,9.392,0,0,0-.219,12.266c-3.512,2.867-8.7,5.285-7.977,10.535.723,5.211,6.344,8.215,11.484,9.3s10.754,1.219,15.031,4.273a60.159,60.159,0,0,1-6.73,3.027,58.954,58.954,0,0,1-7.219.992c-4.645.559-9.277,1.633-12.359,5.523-1.977,2.492-1.645,5.141-1.566,7.961-4.98.453-10.008-2.824-13.965-5.48-4.344-2.922-8.754-6.133-13.918-6.988-1.871-.309-4.113-.137-5.191,1.422-.832,1.207-.664,2.828-.355,4.266a31.1,31.1,0,0,0,5.3,11.852c-3.98-.262-9.23-1.1-11.625,3.078-1.937,3.383-.109,7.684,1.234,10.957,2.527,6.152,8.52,19.793,17.41,15.18,2.848-1.477,5.512-3.625,8.707-3.906,2.777-.246,5.453.98,7.918,2.277s4.98,2.73,7.758,2.953c5.414.43,5.816-4.539,9.844-6.422,2.262-1.059,5.055-.117,6.863,1.609,2.984,2.844,3.406,7.586,7.68,9.148,2.234.813,4.7.18,7.051-.125,6.117-.781,13.824.871,18.5,5.156,4.156,3.8,4.1,10.313,8.523,13.8,2.652,2.09,7.379,1.781,8.586-1.367,1-2.613-.262-6.68,2.395-7.57,12.238-4.094-.957,25.176-2.3,27.578-1.809,3.23-4.133,6.586-7.7,7.594-4.828,1.363-9.582-2.109-13.3-5.48-9.562-8.684-19.445-18.742-32.289-20.129-9.832-1.059-21,3-28.98-2.84L229.945,243.4a10.02,10.02,0,0,0-5.18,5.457c-2.141,5.852,3.273,9.152,5.813,13.582,2.723,4.758,2.016,10.625,2.184,16.1s2.02,11.816,7.168,13.7a26.744,26.744,0,0,0,5.785.906C259.707,294.977,268,310.5,268.707,324.6s-3.719,27.98-3.949,42.09c-.422,25.938,13.141,49.793,26.293,72.152a5.791,5.791,0,0,0,2.3,2.543c1.313.594,2.836.121,4.191-.355q7.395-2.584,14.789-5.172c.594-7.121-4.012-14.461-1.473-21.141,1.172-3.078,3.7-5.43,5.34-8.285,5.148-8.926.8-20-1.238-30.105-.344-1.715-.59-3.609.289-5.121.785-1.348,2.281-2.078,3.648-2.836a32.375,32.375,0,0,0,13.961-15.523,18.752,18.752,0,0,0,1.7-7.3c0-3.723-1.457-7.9.766-10.891,3.008-4.047,11.082-3.25,12.016-8.207.223-1.191-.1-2.441.148-3.625,1.426-6.824,15.215-.8,16.715-10.227a8.877,8.877,0,0,0-2.762-7.746c-5.48-5.2-13.426-4.652-19.641-8.125-3.891-2.176-9.664-12.52-2.551-14.242,5.023-1.215,5.879,6.641,11.148,4.844a11.792,11.792,0,0,0,5.215-3.98c7.418-9.238,19.359,2.723,29.34-9.5,5.34-6.539,4.98-17.277-.4-23.8a13.524,13.524,0,0,1-2.879-5.16c-1.48-5.8,4.3-12.16,10.223-11.242l6.258,8.961c4.781,3.641,6.3.059,9.32,1.2a37.242,37.242,0,0,0,27.98-1.121,14.218,14.218,0,0,1,11.762.082c.594-.395.621-.418,1.215-.812A207.485,207.485,0,0,0,374.84,82.008Zm0,0" fill="#d7e057"/><path d="M376.777,79.719a2.994,2.994,0,0,0-3.5-.273,25.233,25.233,0,0,0-4.047,3.027,23.391,23.391,0,0,0-4.336,6.293c-2.344,4.344-3.6,6.1-6.617,5.965-2.254-.105-4.434-1.617-6.742-3.215-4.031-2.793-9.555-6.621-16.43-1.383a31.646,31.646,0,0,0-4.207,4.078,30.383,30.383,0,0,1-3.066,3.074c-3.367,2.754-7.457,4.105-13.676,4.516-15.5,1.02-15.5,1.02-16.457,2.691a3,3,0,0,0-.027,2.934,25.387,25.387,0,0,1,1.445,3.121,39.986,39.986,0,0,1-5.309.68c-.7.063-1.391.121-2.082.191-3.512.355-8.566,1.246-11.977,4.82a12.518,12.518,0,0,0-2.062,13.609c-3.32,2.41-7.754,5.719-6.934,11.676.938,6.766,7.762,10.543,13.84,11.82,1.313.273,2.652.492,3.992.711,1.43.227,2.828.457,4.16.754a36.068,36.068,0,0,1-4.836.7c-.656.066-1.316.133-1.969.211-4.969.594-10.562,1.848-14.355,6.637a10.756,10.756,0,0,0-2.27,6.605c-3.32-.773-6.773-3.09-9.238-4.75l-1.047-.707c-4.258-2.879-8.664-5.859-14.059-6.754-3.59-.59-6.562.387-8.145,2.68-1.527,2.211-1.2,4.82-.824,6.594a33.924,33.924,0,0,0,2.793,8.012c-3.266.168-6.7,1.168-8.781,4.8-2.637,4.594-.457,9.9,1.059,13.586,2.816,6.863,6.863,15.039,13.2,17.363a10.153,10.153,0,0,0,8.367-.656c.8-.414,1.586-.875,2.371-1.34,1.82-1.078,3.539-2.094,5.219-2.242,2.027-.172,4.293.914,6.258,1.945l.551.293c2.426,1.285,5.176,2.742,8.363,3,4.813.395,7.109-2.344,8.777-4.336a8.154,8.154,0,0,1,2.574-2.355c.918-.434,2.434.023,3.523,1.063a13.213,13.213,0,0,1,2.156,3.188c1.3,2.348,2.91,5.27,6.563,6.605,2.543.926,5.031.547,7.227.215.414-.066.824-.125,1.234-.18,5.836-.746,12.461,1.059,16.1,4.391,1.516,1.383,2.383,3.473,3.3,5.684,1.164,2.8,2.488,5.969,5.395,8.262a9.694,9.694,0,0,0,8.324,1.648,7.176,7.176,0,0,0,4.918-4.3,13.482,13.482,0,0,0,.688-4.113,13.648,13.648,0,0,1,.172-1.781,3.56,3.56,0,0,1,.75-.141c1.488,3.258-4.6,19.34-6.934,23.5-1.484,2.648-3.348,5.453-5.9,6.176-3.527,1-7.664-2.27-10.465-4.816L321.3,247.2c-9.23-8.469-18.777-17.227-31.477-18.6a63.338,63.338,0,0,0-10.891.1c-6.309.426-12.27.824-16.637-2.375a3,3,0,0,0-3.066-.285L228.648,240.7a12.942,12.942,0,0,0-6.7,7.133c-2.121,5.8,1.242,9.926,3.7,12.937a25.288,25.288,0,0,1,2.328,3.168c1.773,3.094,1.766,7.043,1.758,11.227,0,1.168,0,2.328.027,3.473.254,8.289,3.668,14.43,9.141,16.426a18.865,18.865,0,0,0,4.895.906c.516.047,1.027.094,1.531.16,12.391,1.617,19.754,15.953,20.387,28.621.371,7.445-.734,14.77-1.91,22.523a146.185,146.185,0,0,0-2.047,19.367c-.449,27.555,14.609,53.156,26.707,73.719a8.385,8.385,0,0,0,3.656,3.758,6.293,6.293,0,0,0,2.605.543,11.552,11.552,0,0,0,3.813-.8l14.789-5.172a3,3,0,0,0,2-2.582,33.175,33.175,0,0,0-1.168-10.016c-.84-3.754-1.633-7.3-.488-10.312a18.706,18.706,0,0,1,2.691-4.3,35.445,35.445,0,0,0,2.445-3.551c4.773-8.281,2.449-17.965.395-26.512-.457-1.914-.914-3.816-1.293-5.687-.141-.691-.465-2.32-.059-3.02a6.229,6.229,0,0,1,2.117-1.508l.391-.215a35.246,35.246,0,0,0,15.27-16.977,21.5,21.5,0,0,0,1.934-8.469,32.732,32.732,0,0,0-.254-3.555c-.25-2.332-.465-4.344.426-5.543.8-1.074,2.707-1.762,4.555-2.426,3.023-1.086,7.164-2.578,8-7.016a10.787,10.787,0,0,0,.121-2.437,5.7,5.7,0,0,1,.02-1.133c.188-.9,1.582-1.223,4.84-1.648,4.273-.559,10.734-1.4,11.9-8.715a11.819,11.819,0,0,0-3.66-10.395c-3.781-3.586-8.3-4.773-12.676-5.922a32.273,32.273,0,0,1-7.566-2.645c-1.945-1.09-4.672-5.547-4.359-7.812.043-.34.09-.66,1.051-.895.586-.145.941.031,2.457,1.637,1.648,1.75,4.418,4.676,8.953,3.129a14.489,14.489,0,0,0,6.582-4.937c2.359-2.937,5.23-2.9,10.1-2.586,5.754.371,12.91.84,19.227-6.895,6.137-7.516,5.953-19.9-.406-27.6a10.477,10.477,0,0,1-2.289-4,5.969,5.969,0,0,1,1.648-5.379,6.421,6.421,0,0,1,4.055-2.187l5.414,7.746a2.971,2.971,0,0,0,.641.668c4.121,3.141,7.078,2.3,8.84,1.809.844-.242,1.027-.266,1.25-.184a40.111,40.111,0,0,0,30.258-1.2,11.2,11.2,0,0,1,9.277.07,2.984,2.984,0,0,0,2.918-.234l1.219-.812a3,3,0,0,0,1.328-2.477A210.549,210.549,0,0,0,376.777,79.719Zm57.445,160.234A34.054,34.054,0,0,1,408.539,241a7.479,7.479,0,0,0-4.984.023,2.943,2.943,0,0,1-3.219-.539l-5.98-8.559a3.016,3.016,0,0,0-2-1.246,12.563,12.563,0,0,0-13.59,14.949,16.521,16.521,0,0,0,3.477,6.328c4.551,5.52,4.73,14.676.387,19.992-4.359,5.344-8.914,5.043-14.187,4.7-5.035-.324-10.738-.7-15.164,4.816a8.747,8.747,0,0,1-3.844,3.016c-.7.242-.957.23-2.652-1.566-1.535-1.629-4.1-4.352-8.234-3.352a6.917,6.917,0,0,0-5.582,5.91c-.746,5.438,3.945,11.945,7.375,13.863a37.336,37.336,0,0,0,8.969,3.215c3.809,1,7.406,1.945,10.07,4.469a5.908,5.908,0,0,1,1.867,5.1c-.4,2.508-1.875,3.07-6.75,3.707-3.734.488-8.848,1.156-9.937,6.375a10.352,10.352,0,0,0-.145,2.566,6.293,6.293,0,0,1-.016,1.117c-.191,1-1.691,1.6-4.137,2.48-2.559.922-5.461,1.965-7.34,4.492-2.293,3.082-1.895,6.789-1.574,9.766a29.02,29.02,0,0,1,.219,2.918,15.824,15.824,0,0,1-1.457,6.121,29.245,29.245,0,0,1-12.664,14.074l-.359.2a10.5,10.5,0,0,0-4.422,3.75c-1.367,2.355-1.086,4.973-.637,7.223.391,1.941.867,3.918,1.344,5.906,1.965,8.176,3.82,15.9.238,22.109a30.459,30.459,0,0,1-2.043,2.941,23.49,23.49,0,0,0-3.5,5.773c-1.785,4.691-.754,9.3.238,13.75a39.288,39.288,0,0,1,1.066,6.32l-12.809,4.477a4.686,4.686,0,0,1-1.961.457,5.562,5.562,0,0,1-.957-1.336c-11.719-19.918-26.3-44.711-25.883-70.582a141.025,141.025,0,0,1,1.98-18.566c1.164-7.7,2.367-15.672,1.965-23.719-.773-15.473-9.812-32.211-25.6-34.273-.582-.078-1.176-.129-1.766-.184a14.03,14.03,0,0,1-3.379-.57c-3.625-1.324-5.062-6.531-5.2-10.969-.031-1.082-.027-2.176-.027-3.277.012-4.789.02-9.738-2.551-14.227a29.951,29.951,0,0,0-2.883-3.969c-2.6-3.2-3.578-4.73-2.715-7.086a7.079,7.079,0,0,1,3.66-3.789L260.3,232.179c5.8,3.4,12.523,2.945,19.039,2.508a57.552,57.552,0,0,1,9.844-.121c10.742,1.16,19.551,9.242,28.066,17.055l2.531,2.313c3.859,3.5,9.73,7.949,16.133,6.145,4.68-1.324,7.531-5.512,9.5-9.012.125-.227,11.9-23.582,6.238-30.426-.965-1.16-3.211-2.9-7.5-1.465-3.617,1.211-3.824,4.859-3.945,7.039a9.406,9.406,0,0,1-.3,2.3,1.236,1.236,0,0,1-.91.66,3.658,3.658,0,0,1-3.02-.578c-1.68-1.324-2.555-3.426-3.566-5.855-1.078-2.586-2.3-5.52-4.789-7.8-5.684-5.207-14.6-6.723-20.91-5.918-.453.059-.918.129-1.379.2a9.584,9.584,0,0,1-4.262.082c-1.473-.539-2.2-1.758-3.367-3.871a18.18,18.18,0,0,0-3.273-4.633c-2.914-2.781-7.02-3.645-10.2-2.152a13.438,13.438,0,0,0-4.629,3.938c-1.5,1.785-2.043,2.34-3.707,2.211-1.949-.156-3.93-1.207-6.027-2.316l-.57-.3c-2.922-1.535-6.117-2.918-9.578-2.609-3.031.266-5.535,1.746-7.75,3.051-.687.41-1.379.816-2.078,1.18a4.148,4.148,0,0,1-3.539.348c-4.668-1.711-8.465-10.965-9.789-14.187-1.113-2.715-2.5-6.094-1.332-8.141,1.152-2.008,3.8-1.965,7.7-1.66l1.125.082a2.966,2.966,0,0,0,2.828-1.547,3,3,0,0,0-.207-3.219,28.193,28.193,0,0,1-4.789-10.7c-.336-1.582-.117-1.922-.105-1.937a3.184,3.184,0,0,1,2.23-.168c4.1.68,7.777,3.168,11.672,5.8l1.063.715c3.875,2.605,9.734,6.535,15.91,5.977a3,3,0,0,0,2.727-3.066l-.031-.9c-.086-2.465-.086-3.812.949-5.121,2.3-2.9,5.809-3.859,10.367-4.406.621-.074,1.242-.137,1.863-.2a40.261,40.261,0,0,0,5.715-.863c.082-.02,8.379-2.344,8.957-5.367a3.007,3.007,0,0,0-1.2-3.012c-3.8-2.715-8.191-3.422-12.441-4.109-1.25-.2-2.5-.4-3.715-.66-3.895-.82-8.621-3.082-9.129-6.77-.309-2.23,1.254-3.633,4.645-6.1.781-.562,1.551-1.125,2.258-1.7a3,3,0,0,0,.348-4.316,6.422,6.422,0,0,1,.145-8.207c1.574-1.648,4.113-2.57,8.242-2.992.656-.07,1.32-.125,1.98-.184,3.234-.273,6.582-.559,9.793-2.012a3,3,0,0,0,1.668-3.492,31.684,31.684,0,0,0-1-3.148c3.746-.312,8.91-.711,9.773-.77,5.023-.332,11.508-1.293,17.078-5.859a35.172,35.172,0,0,0,3.711-3.68,26.177,26.177,0,0,1,3.4-3.336c3.27-2.488,5.238-1.328,9.379,1.539,2.77,1.918,5.906,4.09,9.887,4.277,7.145.293,10.027-5.133,12.172-9.113a19.089,19.089,0,0,1,3.141-4.746c.4-.371.844-.738,1.309-1.094a204.574,204.574,0,0,1,70.8,153.2,17.169,17.169,0,0,0-11.207.984Zm0,0" fill="#3a312a"/><path d="M436.7,245.414a40.294,40.294,0,0,1-22.422,3.18A207.775,207.775,0,0,1,313.1,419.352a33.54,33.54,0,0,0,1.063,6.742c.4,1.82.8,3.66,1.02,5.559,76.438-29.98,128.379-104.219,130.18-186.4a11.189,11.189,0,0,0-8.66.16Zm0,0" fill="#68a8bc"/><path d="M241.8,35.773A206.925,206.925,0,0,1,340.84,82.012q5.068,4.295,9.879,8.941c.281.2.559.379.82.559,2.3,1.6,4.48,3.121,6.738,3.223,3.02.141,4.281-1.621,6.621-5.961a22.949,22.949,0,0,1,4.34-6.3c.2-.2.461-.379.7-.578A204.869,204.869,0,0,0,241.8,35.773Zm0,0" fill="#68a8bc"/><path d="M308.3,427.395c-.34-1.562-.7-3.16-.918-4.742q-8.432,4.682-17.281,8.6c1.18,2.059,2.383,4.078,3.539,6.059a6.087,6.087,0,0,0,.961,1.34,4.575,4.575,0,0,0,1.961-.461l12.82-4.477a39.9,39.9,0,0,0-1.082-6.32Zm0,0" fill="#b9bc39"/><path d="M374.621,85.773a16.626,16.626,0,0,0-1.3,1.1,18.539,18.539,0,0,0-3.141,4.738c-1.9,3.559-4.418,8.262-10.02,9.02a207.219,207.219,0,0,1,54.281,140.121c0,.6,0,1.2-.02,1.8a34.258,34.258,0,0,0,19.8-2.6,17.063,17.063,0,0,1,11.223-.98,204.593,204.593,0,0,0-70.82-153.2Zm0,0" fill="#b9bc39"/><path d="M284.52,433.594c-1.957.8-3.918,1.559-5.9,2.3q-9.51,3.51-19.441,6.117c-5.68,1.48-11.461,2.742-17.32,3.742a206.648,206.648,0,0,0,46.461-5.641c-1.242-2.121-2.523-4.3-3.8-6.52Zm0,0" fill="#68a8bc"/></g></svg>